<?xml version="1.0" encoding="UTF-8" standalone="no"?>
<!-- Created with Inkscape (http://www.inkscape.org/) -->

<svg
   version="1.1"
   id="svg59"
   width="990.96771"
   height="557.41937"
   viewBox="0 0 990.96771 557.41937"
   sodipodi:docname="starryNight.svg"
   inkscape:version="1.2 (dc2aedaf03, 2022-05-15)"
   xmlns:inkscape="http://www.inkscape.org/namespaces/inkscape"
   xmlns:sodipodi="http://sodipodi.sourceforge.net/DTD/sodipodi-0.dtd"
   xmlns="http://www.w3.org/2000/svg"
   xmlns:svg="http://www.w3.org/2000/svg">
  <defs
     id="defs63" />
  <sodipodi:namedview
     id="namedview61"
     bordercolor="#000000"
     borderopacity="0.25"
     inkscape:showpageshadow="2"
     inkscape:pageopacity="0.0"
     inkscape:pagecheckerboard="0"
     inkscape:deskcolor="#d1d1d1"
     showgrid="false"
     inkscape:zoom="2.0361689"
     inkscape:cx="495.2929"
     inkscape:cy="278.70969"
     inkscape:window-width="2560"
     inkscape:window-height="1351"
     inkscape:window-x="1791"
     inkscape:window-y="1385"
     inkscape:window-maximized="1"
     inkscape:current-layer="g65" />
  <g
     inkscape:groupmode="layer"
     inkscape:label="Image"
     id="g65">
    <g
       id="g330">
      <path
                  id="path334" />
      <path
         style="fill:#caa223;stroke-width:0.309677"
         d="m 525.97299,465.92378 c -1.57319,-1.57322 -0.44572,-4.19474 1.80409,-4.19474 1.38401,0 2.39064,1.06146 2.39064,2.52081 0,2.2185 -2.60903,3.25963 -4.19473,1.67393 z m 66.58064,-23.84516 c -0.47913,-0.47917 -0.7601,-1.11394 -0.7601,-1.71732 0,-0.60337 0.28097,-1.23815 0.7601,-1.71731 0.47917,-0.47914 1.11394,-0.76011 1.71732,-0.76011 0.60337,0 1.23815,0.28097 1.71731,0.76011 0.47914,0.47916 0.76011,1.11394 0.76011,1.71731 0,0.60338 -0.28097,1.23815 -0.76011,1.71732 -0.47916,0.47913 -1.11394,0.7601 -1.71731,0.7601 -0.60338,0 -1.23815,-0.28097 -1.71732,-0.7601 z m -61.1472,-16.29885 c -1.0821,-0.43392 -1.84304,-1.50847 -1.85119,-2.61408 -0.0217,-2.96724 4.49466,-3.93504 5.78047,-1.23868 1.08843,2.28242 -1.50469,4.82499 -3.92928,3.85276 z m 128.03889,-16.49184 c -0.56904,-0.56903 -1.12831,-1.40789 -1.2428,-1.86407 -0.47526,-1.8935 1.39553,-3.861 3.27806,-3.44755 0.49139,0.10792 1.31733,0.67903 1.83546,1.26912 2.76402,3.14806 -0.91885,6.99437 -3.87072,4.0425 z M 804.74558,394.0801 c -0.0948,-0.2469 -0.17094,-2.02368 -0.16927,-3.94838 0.005,-5.79874 -0.73461,-6.93021 -4.90724,-7.50751 -1.77621,-0.24573 -2.40458,-0.45337 -2.40458,-0.79457 0,-0.35307 0.54711,-0.50233 2.32258,-0.63357 1.27742,-0.0944 2.63467,-0.34244 3.01614,-0.55114 1.18234,-0.64679 1.71737,-2.14863 1.91228,-5.36767 0.0997,-1.64655 0.29717,-3.10956 0.43885,-3.25111 0.60056,-0.60019 1.13596,0.98904 1.13596,3.37201 0,4.3676 1.25227,5.8115 5.04198,5.81361 1.62032,0 2.14256,0.11201 2.28628,0.48647 0.32709,0.85239 -0.47448,1.21174 -2.80589,1.25785 -1.2454,0.0248 -2.54524,0.19509 -2.88848,0.3788 -1.153,0.61706 -1.5636,2.1399 -1.74851,6.48504 -0.0963,2.26421 -0.25755,4.25002 -0.35823,4.41291 -0.26765,0.43311 -0.67442,0.36182 -0.87187,-0.15274 z M 579.3466,383.76775 c -0.20528,-6.27992 -0.8447,-7.26782 -4.97809,-7.6913 -3.61948,-0.37084 -3.67603,-1.20307 -0.0974,-1.43272 3.88682,-0.24945 4.6119,-1.15389 4.98673,-6.2204 0.18974,-2.5649 0.30252,-3.01988 0.72845,-2.93869 0.41104,0.0783 0.53612,0.66655 0.67826,3.18959 0.18503,3.28456 0.38282,3.89271 1.65219,5.08004 0.66925,0.62595 1.20068,0.77104 3.2618,0.89035 1.62661,0.0942 2.51477,0.27936 2.61699,0.54569 0.26948,0.70225 -0.51363,0.99741 -2.96308,1.11672 -1.9959,0.0972 -2.5087,0.23647 -3.17466,0.86212 -1.04104,0.97799 -1.40885,2.40433 -1.41095,5.4715 -0.003,3.3177 -0.3011,5.38517 -0.77832,5.38517 -0.27855,0 -0.42063,-1.15909 -0.52196,-4.25807 z m 271.80176,-2.54059 c -1.74965,-0.72372 -2.82113,-3.00081 -2.15619,-4.58227 0.85455,-2.03238 3.02533,-2.2228 4.82487,-0.42323 1.56018,1.56015 1.65971,3.03307 0.29707,4.39571 -0.9089,0.90891 -1.79972,1.09208 -2.96575,0.60979 z m -398.30253,-2.62319 c -2.03421,-0.90961 -2.44964,-3.52453 -0.77045,-4.84973 1.15928,-0.91491 3.30894,-0.67615 4.30148,0.47774 2.09351,2.43382 -0.54887,5.70553 -3.53103,4.37199 z m 315.73349,-5.65477 c -1.0403,-0.64564 -2.43741,-2.79007 -2.43741,-3.74121 0,-1.55805 1.15045,-2.83361 2.57023,-2.84975 2.06468,-0.0235 3.94133,1.98916 3.92315,4.20734 -0.0195,2.37631 -2.09878,3.59827 -4.05597,2.38362 z m -111.92315,-9.27827 c -1.76116,-1.90031 -0.48514,-5.06447 2.04239,-5.06447 0.92513,0 1.33616,0.19872 1.97066,0.95279 1.66997,1.98466 0.45839,4.93108 -2.02767,4.93108 -0.92798,0 -1.41058,-0.19918 -1.98538,-0.8194 z m 251.1285,-24.25162 c -0.98784,-0.40921 -1.97825,-1.84208 -1.97825,-2.86207 0,-2.78236 2.75811,-4.0403 4.66898,-2.12943 2.17539,2.17536 0.0462,6.12523 -2.69073,4.9915 z m -395.99113,-9.50963 c -0.11356,-0.11353 -0.20646,-0.8405 -0.20646,-1.61544 0,-2.18604 -0.78107,-3.86477 -2.15833,-4.63884 -0.64769,-0.364 -1.60013,-0.66184 -2.11658,-0.66184 -1.33833,0 -1.91864,-0.28924 -1.91864,-0.95626 0,-0.59055 0.32012,-0.71823 2.54639,-1.01574 2.29539,-0.30673 3.64716,-2.25188 3.64716,-5.24807 0,-1.0625 0.13753,-1.52312 0.49576,-1.66058 0.66984,-0.25704 1.04182,0.42088 1.04962,1.91291 0.0167,3.21126 1.58376,5.10967 4.21762,5.10967 0.76333,0 1.44003,0.18832 1.66926,0.46452 0.61127,0.73657 -0.11028,1.2956 -1.8934,1.46691 -1.26869,0.12192 -1.77727,0.356 -2.6334,1.21217 -0.87521,0.87521 -1.09047,1.35729 -1.22893,2.75229 -0.0923,0.93015 -0.23127,2.00476 -0.30875,2.38798 -0.13545,0.66993 -0.73049,0.92117 -1.16132,0.49032 z m -48.86223,-6.57003 c -0.95898,-0.95894 -1.20229,-1.43182 -1.20229,-2.33664 0,-3.30491 4.4169,-3.62313 6.06453,-0.43692 0.96719,1.8703 -0.39991,3.97585 -2.58144,3.97585 -0.83993,0 -1.34449,-0.26595 -2.2808,-1.20229 z m 146.33422,-21.67843 c -1.00543,-0.61311 -1.98813,-2.30683 -1.98813,-3.42662 0,-0.90321 0.79327,-2.3743 1.40742,-2.60997 0.88196,-0.33844 2.46033,-0.20655 3.12846,0.26143 0.87595,0.61353 1.65767,2.34364 1.65767,3.66871 0,0.83358 -0.2221,1.27384 -0.95279,1.88868 -1.13007,0.95089 -1.95936,1.00641 -3.25263,0.21777 z m 350.52194,-5.59419 c -1.17117,-0.71412 -1.64557,-1.50412 -1.64557,-2.74038 0,-2.02323 2.09457,-3.28117 4.07115,-2.44501 1.38803,0.58719 2.11132,1.45517 2.32868,2.79463 0.15369,0.94721 0.043,1.24475 -0.76363,2.05131 -1.12618,1.12618 -2.50765,1.2437 -3.99063,0.33945 z m -39.17636,-4.58315 c -0.20529,-6.27992 -0.84471,-7.26783 -4.9781,-7.69131 -3.61948,-0.37082 -3.67602,-1.20305 -0.0974,-1.43272 3.88682,-0.24944 4.6119,-1.1539 4.98674,-6.22039 0.18974,-2.56492 0.30252,-3.01988 0.72845,-2.9387 0.41103,0.0783 0.53611,0.66657 0.67826,3.18958 0.18503,3.28458 0.38282,3.89273 1.65219,5.08005 0.66924,0.62597 1.20068,0.77103 3.2618,0.89035 1.62661,0.0942 2.51476,0.27936 2.61699,0.54568 0.26948,0.70227 -0.51363,0.99741 -2.96309,1.11673 -1.9959,0.0972 -2.50869,0.23648 -3.17466,0.86212 -1.04104,0.97799 -1.40884,2.40433 -1.41095,5.47152 -0.003,3.31768 -0.3011,5.38515 -0.77831,5.38515 -0.27856,0 -0.42064,-1.15908 -0.52196,-4.25806 z M 549.4916,276.10839 c -1.28563,-1.28563 -1.38909,-2.54751 -0.31157,-3.80021 0.59238,-0.68871 1.00311,-0.86184 2.04458,-0.86184 1.07886,0 1.45778,0.17293 2.2006,1.0043 1.19387,1.33616 1.19124,2.60635 -0.008,3.80545 -1.27219,1.2722 -2.5541,1.22397 -3.92575,-0.1477 z m 315.84649,-3.4725 c -1.1345,-0.55949 -2.09466,-2.31815 -1.83354,-3.35846 0.29618,-1.18012 1.20951,-2.03576 2.35349,-2.20487 3.2364,-0.47843 4.99534,4.1362 2.1395,5.61302 -1.08756,0.5624 -1.4313,0.55598 -2.65945,-0.0497 z M 679.2774,272.39851 c -2.04211,-0.91685 -2.76567,-2.77107 -1.73002,-4.43331 1.5574,-2.49964 5.60099,-0.91447 5.60099,2.19571 0,0.96484 -1.14318,2.27971 -2.16775,2.49331 -0.4258,0.0888 -1.19225,-0.0263 -1.70322,-0.25571 z m -278.57865,-9.45855 c -2.16969,-2.16968 -0.2434,-5.40187 2.74529,-4.60648 1.10277,0.29349 2.23021,1.77493 2.23222,2.93309 0,0.37016 -0.35963,1.10177 -0.80058,1.6258 -1.11515,1.32528 -2.87913,1.34538 -4.17693,0.0476 z m -129.31961,-6.33935 c -1.12988,-0.97187 -1.21391,-2.92928 -0.17055,-3.97265 1.04337,-1.04336 3.00078,-0.95933 3.97265,0.17055 1.02742,1.19444 0.96834,2.506 -0.16388,3.63822 -1.13222,1.13222 -2.44379,1.1913 -3.63822,0.16388 z m 76.32876,-19.61996 c -0.20528,-6.27992 -0.84471,-7.26783 -4.97809,-7.6913 -3.61948,-0.37083 -3.67603,-1.20306 -0.0974,-1.43272 3.88683,-0.24944 4.6119,-1.1539 4.98674,-6.2204 0.18974,-2.56492 0.30252,-3.01988 0.72845,-2.9387 0.41104,0.0783 0.53612,0.66657 0.67826,3.18959 0.18503,3.28457 0.38282,3.89272 1.65219,5.08005 0.66924,0.62596 1.20068,0.77102 3.2618,0.89034 1.62661,0.0942 2.51477,0.27936 2.61699,0.54568 0.26948,0.70227 -0.51363,0.99742 -2.96309,1.11673 -1.9959,0.0972 -2.50869,0.23648 -3.17465,0.86212 -1.04105,0.97799 -1.40885,2.40433 -1.41096,5.47152 -0.003,3.31768 -0.30109,5.38516 -0.77831,5.38516 -0.27855,0 -0.42063,-1.15909 -0.52196,-4.25807 z m 88.41213,1.80744 c -1.24856,-0.77792 -1.61565,-2.29795 -0.89265,-3.69612 1.39652,-2.70053 5.1339,-1.85565 5.1339,1.16056 0,2.40828 -2.2687,3.76457 -4.24125,2.53556 z m 183.44125,-8.59454 c -0.11356,-0.11354 -0.20646,-0.8405 -0.20646,-1.61545 0,-2.18602 -0.78107,-3.86476 -2.15833,-4.63882 -0.64769,-0.36402 -1.60013,-0.66185 -2.11658,-0.66185 -1.33833,0 -1.91864,-0.28923 -1.91864,-0.95627 0,-0.59054 0.32011,-0.71823 2.54638,-1.01573 2.2954,-0.30675 3.64717,-2.25187 3.64717,-5.24808 0,-1.06248 0.13753,-1.5231 0.49576,-1.66058 0.66983,-0.25703 1.04182,0.4209 1.04962,1.91291 0.0167,3.21125 1.58375,5.10968 4.21762,5.10968 0.76333,0 1.44003,0.18832 1.66926,0.46452 0.61127,0.73655 -0.11028,1.29559 -1.8934,1.46692 -1.26869,0.12191 -1.77727,0.356 -2.63341,1.21215 -0.87521,0.8752 -1.09046,1.35731 -1.22892,2.75229 -0.0924,0.93017 -0.23127,2.00477 -0.30875,2.38799 -0.13545,0.66992 -0.7305,0.92116 -1.16132,0.49032 z m 226.47604,-8.07741 c -0.0158,-2.66 -0.33575,-6.67764 -0.59827,-7.50968 -0.55872,-1.77087 -1.12162,-2.27836 -2.73259,-2.46354 -1.86351,-0.21421 -1.78442,-0.6986 0.17927,-1.09775 0.8379,-0.17033 1.72819,-0.48222 1.97841,-0.6931 0.69129,-0.5826 1.25586,-2.81 1.23066,-4.85537 -0.0232,-1.87688 0.4132,-3.24306 0.88422,-2.76865 0.14499,0.14603 0.4171,1.50394 0.60464,3.01759 0.52949,4.27278 1.42285,5.45437 4.12392,5.45437 2.0901,0 1.76729,0.71865 -0.42875,0.95448 -0.92337,0.0992 -1.89984,0.27949 -2.16994,0.40071 -0.90228,0.405 -1.58236,2.44706 -1.85469,5.56915 -0.29079,3.33375 -0.4861,4.22404 -0.92671,4.22404 -0.15884,0 -0.28943,-0.10451 -0.29017,-0.23225 z m -548.74255,-0.4023 c -1.48682,-0.33899 -2.79155,-1.86051 -2.79155,-3.25538 0,-1.2554 1.00553,-2.46525 2.32396,-2.79615 2.02357,-0.50788 4.79862,1.39965 4.79862,3.29851 0,1.08047 -1.35688,2.6435 -2.47742,2.85382 -0.42581,0.0799 -1.25993,0.0346 -1.85361,-0.1008 z m 630.02674,-4.43587 c -1.55372,-0.68861 -2.1011,-2.53772 -1.24268,-4.19775 0.50407,-0.97473 1.03374,-1.26086 2.33404,-1.26086 1.30031,0 1.82998,0.28613 2.33404,1.26086 0.65466,1.26601 0.56142,2.60913 -0.24371,3.51021 -0.87782,0.9824 -1.97934,1.22043 -3.18169,0.68754 z m -243.08927,-0.25845 c -1.01274,-0.5808 -1.37327,-1.25603 -1.3837,-2.59134 -0.0115,-1.47117 0.8495,-2.4865 2.36565,-2.78972 0.76995,-0.154 1.13435,-0.0216 1.90424,0.692 2.51635,2.33231 0.0347,6.36417 -2.88619,4.68906 z m -179.83299,-5.62234 c -1.34592,-1.02256 -1.28823,-3.0543 0.11461,-4.03689 1.60964,-1.12744 3.66677,-0.0334 3.66677,1.95015 0,2.01556 -2.24464,3.25426 -3.78138,2.08674 z M 396.80732,197.57681 c -0.86871,-0.35056 -1.65895,-1.50236 -1.65895,-2.41792 0,-0.89427 1.58016,-2.53953 2.43902,-2.53953 1.56908,0 2.8255,1.25643 2.8255,2.82549 0,0.79222 -1.62376,2.4455 -2.37619,2.4194 -0.31116,-0.0108 -0.8644,-0.14015 -1.22938,-0.28744 z m 465.58444,-8.28648 c -0.20529,-6.27992 -0.84471,-7.26783 -4.9781,-7.69131 -3.61948,-0.37083 -3.67603,-1.20305 -0.0974,-1.43272 3.88682,-0.24944 4.6119,-1.1539 4.98673,-6.2204 0.18974,-2.56491 0.30253,-3.01987 0.72846,-2.93869 0.41103,0.0783 0.53611,0.66657 0.67825,3.18958 0.18503,3.28458 0.38283,3.89273 1.65219,5.08005 0.66925,0.62597 1.20068,0.77103 3.2618,0.89035 1.62662,0.0942 2.51477,0.27935 2.617,0.54568 0.26948,0.70227 -0.51364,0.99741 -2.96309,1.11672 -1.9959,0.0972 -2.5087,0.23649 -3.17466,0.86212 -1.04104,0.978 -1.40885,2.40433 -1.41095,5.47153 -0.003,3.31767 -0.3011,5.38515 -0.77831,5.38515 -0.27856,0 -0.42064,-1.15908 -0.52196,-4.25806 z m -598.73609,2.40617 c -0.97044,-0.3921 -1.97826,-1.82761 -1.97826,-2.81776 0,-1.81421 2.45571,-3.30888 4.69921,-2.86019 2.4293,0.48587 3.3201,3.62347 1.47058,5.17973 -0.99716,0.83906 -2.81361,1.05496 -4.19153,0.49822 z m 297.58998,-1.04991 c -1.13937,-0.98003 -1.18232,-2.67735 -0.0947,-3.7408 1.79111,-1.7513 4.62968,-0.62156 4.62968,1.8426 0,2.35513 -2.69321,3.48242 -4.53498,1.8982 z m 417.22853,-0.54569 c -0.68132,-0.39605 -1.44195,-2.09693 -1.44195,-3.22445 0,-1.14419 1.553,-2.61838 2.75839,-2.61838 1.3941,0 2.81162,1.38698 3.02217,2.95707 0.14084,1.05031 0.0327,1.41475 -0.66599,2.24516 -0.66336,0.78834 -1.06628,0.98939 -1.96791,0.9819 -0.62357,-0.005 -1.3907,-0.15876 -1.70471,-0.3413 z m -520.6309,-11.3074 c -1.08084,-1.16622 -1.02349,-2.6803 0.14579,-3.84957 1.225,-1.22501 2.28676,-1.18164 3.61608,0.14769 1.15085,1.15085 1.29253,1.92092 0.59984,3.26043 -0.52134,1.00816 -1.02819,1.26086 -2.52898,1.26086 -0.76292,0 -1.293,-0.237 -1.83273,-0.81941 z M 894.59,169.47097 c -1.66709,-1.76739 -1.63572,-4.61573 0.0605,-5.49288 0.49818,-0.25762 1.12868,-0.46841 1.40107,-0.46841 0.9675,0 2.24631,0.91701 2.74536,1.96865 0.73108,1.54065 0.63669,2.78365 -0.29547,3.89146 -1.08628,1.29099 -2.74863,1.33399 -3.91147,0.10118 z m -582.84806,-6.7871 c -0.11356,-0.11354 -0.21706,-0.91483 -0.23003,-1.78064 -0.013,-0.86581 -0.19851,-2.06194 -0.41231,-2.65806 -0.45371,-1.26495 -2.07165,-2.47742 -3.30589,-2.47742 -1.38177,0 -2.51085,-0.54841 -2.39277,-1.1622 0.0774,-0.40213 0.53137,-0.59331 1.76839,-0.74465 2.8185,-0.34484 4.05312,-1.75165 4.3056,-4.90606 0.075,-0.93677 0.28611,-1.89 0.46923,-2.11828 0.5331,-0.66465 1.13961,0.45246 1.1402,2.10005 0,2.72012 1.59623,4.6053 4.13983,4.892 1.50608,0.16976 2.38039,0.80681 1.84375,1.34344 -0.16889,0.1689 -1.01738,0.41937 -1.8855,0.5566 -2.80896,0.44404 -4.09858,1.92122 -4.09858,4.69467 0,1.78298 -0.67776,2.92472 -1.34192,2.26055 z m 315.78827,-0.85764 c -0.52806,-0.22848 -1.05064,-0.65134 -1.16129,-0.9397 -1.04426,-2.72129 2.1761,-4.98404 4.02847,-2.83055 0.91296,1.06139 0.92256,2.10527 0.0285,3.08883 -0.91058,1.00159 -1.71698,1.19137 -2.89558,0.68142 z M 492.63693,147.1742 c -0.20529,-6.27992 -0.84471,-7.26783 -4.9781,-7.69131 -3.61948,-0.37083 -3.67602,-1.20305 -0.0974,-1.43272 3.88682,-0.24944 4.6119,-1.1539 4.98674,-6.2204 0.18974,-2.56491 0.30252,-3.01987 0.72845,-2.93869 0.41104,0.0783 0.53611,0.66657 0.67826,3.18958 0.18503,3.28458 0.38282,3.89272 1.65219,5.08005 0.66924,0.62597 1.20068,0.77103 3.2618,0.89035 1.62661,0.0942 2.51476,0.27935 2.61699,0.54568 0.26948,0.70227 -0.51363,0.99741 -2.96309,1.11672 -1.9959,0.0972 -2.50869,0.23649 -3.17466,0.86212 -1.04104,0.978 -1.40884,2.40433 -1.41095,5.47152 -0.003,3.31768 -0.3011,5.38516 -0.77831,5.38516 -0.27855,0 -0.42063,-1.15908 -0.52196,-4.25806 z m -93.0415,0.39943 c -0.85805,-0.601 -1.46706,-2.13721 -1.22678,-3.09453 0.32417,-1.29153 1.37964,-2.02748 2.90781,-2.02748 1.14989,0 1.53866,0.17255 2.45642,1.09032 0.93532,0.9353 1.06232,1.23039 0.8933,2.07543 -0.3216,1.60802 -1.3052,2.40844 -2.95965,2.40844 -0.78404,0 -1.71602,-0.20348 -2.0711,-0.45218 z m 544.58718,-16.55626 c -1.87869,-1.87867 -0.79727,-4.97866 1.73679,-4.97866 1.56325,0 2.93218,1.37348 2.93218,2.94194 0,1.49128 -1.37432,2.94193 -2.78709,2.94193 -0.66658,0 -1.26408,-0.2874 -1.88188,-0.90521 z M 7.0627644,127.35484 C 6.8570819,121.06352 6.2215161,120.08737 2.0528797,119.66028 0.23640228,119.47418 4.5875636e-5,119.37464 3.9837521e-4,118.79595 7.6464617e-4,118.19465 0.17041683,118.14188 2.1053792,118.14126 c 3.6579035,-0.001 4.4929465,-1.05271 4.8686425,-6.13084 0.1897604,-2.56492 0.3025409,-3.01988 0.7284749,-2.9387 0.4110137,0.0783 0.5360949,0.66657 0.6782291,3.18959 0.1850369,3.28457 0.3828285,3.89272 1.6522143,5.08005 0.669231,0.62596 1.200655,0.77102 3.261778,0.89034 1.626638,0.0942 2.514793,0.27936 2.616992,0.54568 0.269487,0.70228 -0.513633,0.99742 -2.963082,1.11673 -1.995888,0.0972 -2.508703,0.23648 -3.1746642,0.86212 -1.0410268,0.97799 -1.4088378,2.40433 -1.4109467,5.47152 -0.00228,3.31768 -0.3010941,5.38516 -0.7783165,5.38516 -0.2785453,0 -0.4206212,-1.15909 -0.5219362,-4.25807 z M 685.67902,126.3254 c -2.10209,-1.20546 -2.76973,-2.52151 -2.09652,-4.13273 0.56454,-1.35113 1.48912,-1.8425 3.06832,-1.63068 2.73017,0.3662 4.87444,2.90279 4.16767,4.93022 -0.68944,1.97772 -2.60275,2.2879 -5.13947,0.83319 z m -134.04275,-1.97023 c -3.0703,-1.35746 -2.60928,-5.74872 0.6035,-5.74872 2.63928,0 4.41739,3.51429 2.62473,5.18758 -0.95093,0.88762 -2.05555,1.07962 -3.22823,0.56114 z m -319.47439,-0.97451 c -0.99374,-0.99374 -1.66233,-3.6728 -1.2389,-4.96433 0.17582,-0.53629 0.74022,-1.13768 1.41116,-1.50364 1.07434,-0.586 1.16214,-0.58892 2.24066,-0.0746 1.3115,0.62541 2.311,2.49688 2.32162,4.34703 0.0147,2.56162 -2.97982,3.95026 -4.73454,2.19555 z m 392.06608,-10.42582 c -0.76846,-0.58353 -1.18826,-1.96783 -0.85923,-2.83326 0.56523,-1.48667 2.61133,-2.21551 3.75487,-1.33754 1.35063,1.037 1.54858,2.70096 0.45176,3.79778 -0.84338,0.84338 -2.48683,1.02652 -3.3474,0.37302 z m -346.67693,-5.64767 c -1.42188,-0.61806 -2.17186,-2.25335 -1.63161,-3.55763 0.70111,-1.69262 2.70934,-2.29596 4.77263,-1.43386 2.15349,0.89979 2.68041,3.00466 1.13821,4.54685 -1.03144,1.03144 -2.56313,1.1906 -4.27923,0.44464 z m 65.84762,-4.47618 c -1.99281,-1.08296 -2.29985,-3.378886 -0.62837,-4.698601 1.15652,-0.91314 3.49112,-0.682718 4.63089,0.457062 1.05039,1.050395 1.13478,2.973509 0.1727,3.935589 -0.91804,0.91803 -2.79573,1.05563 -4.17522,0.30595 z M 51.329024,99.691323 C 50.46041,99.1854 49.794077,97.615652 50.017036,96.600529 c 0.568329,-2.587584 4.097627,-2.852275 5.263785,-0.394774 0.561033,1.18229 0.401617,2.07539 -0.557494,3.12328 -0.689911,0.753775 -2.407429,0.937095 -3.394303,0.362288 z M 899.55304,92.051615 c -0.20528,-6.279917 -0.8447,-7.267828 -4.97809,-7.691306 -3.61948,-0.370826 -3.67603,-1.203054 -0.0974,-1.43272 3.88682,-0.249439 4.6119,-1.153898 4.98673,-6.220397 0.18974,-2.564916 0.30253,-3.019879 0.72846,-2.938697 0.41103,0.07834 0.53611,0.666572 0.67825,3.189585 0.18503,3.284575 0.38282,3.892723 1.65219,5.080051 0.66925,0.625966 1.20068,0.771025 3.2618,0.890344 1.62662,0.09416 2.51477,0.279357 2.61699,0.545683 0.26949,0.702271 -0.51363,0.997412 -2.96308,1.116724 -1.9959,0.09722 -2.5087,0.236482 -3.17466,0.862121 -1.04104,0.977995 -1.40885,2.404329 -1.41095,5.47152 -0.003,3.317679 -0.3011,5.385157 -0.77831,5.385157 -0.27856,0 -0.42064,-1.159085 -0.52197,-4.258065 z m 77.81695,-0.108201 c -2.58837,-1.024905 -1.82926,-4.614379 0.97586,-4.614379 2.07505,0 3.09832,2.296849 1.70573,3.828672 -0.84675,0.931398 -1.68982,1.178415 -2.68159,0.785707 z M 441.08242,87.806632 c -2.98244,-1.297344 -1.69771,-5.769582 1.53294,-5.336263 2.1347,0.286325 3.30277,1.950702 2.68425,3.824786 -0.34994,1.060311 -1.60432,1.974138 -2.67778,1.950791 -0.30655,-0.0067 -0.99927,-0.204359 -1.53941,-0.439314 z m 410.90789,-6.531807 c -1.28717,-0.541214 -1.73079,-1.924868 -1.04854,-3.270364 1.1874,-2.341672 4.51111,-1.507884 4.51111,1.131658 0,1.886734 -1.64513,2.902879 -3.46257,2.138706 z m -145.1,-5.30063 c -0.11356,-0.113547 -0.20646,-0.840502 -0.20646,-1.615451 0,-2.186019 -0.78107,-3.864765 -2.15833,-4.638823 -0.64769,-0.364019 -1.60013,-0.661855 -2.11658,-0.661855 -1.33834,0 -1.91864,-0.289226 -1.91864,-0.956265 0,-0.590542 0.32011,-0.718229 2.54638,-1.015733 2.2954,-0.306744 3.64717,-2.251865 3.64717,-5.248075 0,-1.062485 0.13753,-1.523105 0.49576,-1.660577 0.66983,-0.257039 1.04182,0.420892 1.04962,1.912908 0.0167,3.21125 1.58375,5.109678 4.21762,5.109678 0.76333,0 1.44003,0.188315 1.66926,0.464516 0.61127,0.736552 -0.11028,1.295588 -1.8934,1.466923 -1.26869,0.121908 -1.77727,0.355996 -2.63341,1.212149 -0.87521,0.875204 -1.09046,1.357307 -1.22892,2.752286 -0.0924,0.930172 -0.23127,2.004771 -0.30875,2.387997 -0.13545,0.669922 -0.7305,0.921157 -1.16132,0.490322 z M 129.75499,72.735966 c -1.43268,-0.57129 -2.1679,-1.526617 -2.1679,-2.816925 0,-1.737145 1.06466,-2.719039 2.94822,-2.719039 2.45174,0 4.17436,1.288856 4.17436,3.123227 0,2.159257 -2.51681,3.384845 -4.95468,2.412737 z m 424.92327,-8.17703 c -1.20734,-1.01589 -2.04486,-3.143411 -1.64708,-4.183996 0.43085,-1.127163 1.4892,-1.949131 2.50968,-1.949131 2.88855,0 4.92431,4.296536 2.91713,6.156722 -1.0913,1.011378 -2.56066,1.002206 -3.77973,-0.0236 z M 53.470967,57.393549 c -0.113549,-0.113546 -0.206453,-0.840502 -0.206453,-1.615451 0,-2.186019 -0.781077,-3.864765 -2.158327,-4.638822 -0.647687,-0.36402 -1.600147,-0.661855 -2.116574,-0.661855 -1.338342,0 -1.918647,-0.289227 -1.918647,-0.956266 0,-0.590542 0.320101,-0.718228 2.546372,-1.015732 2.295404,-0.306745 3.647176,-2.251866 3.647176,-5.248076 0,-1.062484 0.137519,-1.523105 0.495769,-1.660577 0.669836,-0.257038 1.041811,0.420892 1.049602,1.912909 0.01678,3.211249 1.583771,5.109677 4.21763,5.109677 0.763315,0 1.440031,0.188315 1.669257,0.464516 0.611285,0.736553 -0.11027,1.295588 -1.893383,1.466924 -1.268714,0.121907 -1.777276,0.355996 -2.633432,1.212148 -0.875204,0.875205 -1.090467,1.357307 -1.228927,2.752286 -0.09232,0.930172 -0.231251,2.004772 -0.308732,2.387997 -0.135444,0.669922 -0.730495,0.921158 -1.161331,0.490322 z M 220.12082,50.55484 c -0.20531,-6.279918 -0.84472,-7.267829 -4.97812,-7.691306 -3.61946,-0.370827 -3.67601,-1.203054 -0.0973,-1.43272 3.88681,-0.249439 4.61189,-1.153898 4.98673,-6.220398 0.18976,-2.564915 0.30254,-3.019878 0.72848,-2.938696 0.41101,0.07834 0.53609,0.666571 0.67822,3.189585 0.18504,3.284575 0.38283,3.892722 1.65222,5.08005 0.66923,0.625967 1.20065,0.771026 3.26178,0.890345 1.62663,0.09416 2.51479,0.279357 2.61699,0.545682 0.26948,0.702271 -0.51363,0.997412 -2.96308,1.116725 -1.99589,0.09722 -2.50871,0.236482 -3.17467,0.86212 -1.04103,0.977996 -1.40884,2.40433 -1.41094,5.47152 -0.002,3.31768 -0.3011,5.385158 -0.77832,5.385158 -0.27855,0 -0.42062,-1.159086 -0.52194,-4.258065 z m 146.74369,3.741935 c -0.11355,-0.113547 -0.20646,-0.840502 -0.20646,-1.615451 0,-2.186019 -0.78107,-3.864765 -2.15832,-4.638823 -0.6477,-0.364019 -1.60014,-0.661855 -2.11659,-0.661855 -1.33833,0 -1.91864,-0.289226 -1.91864,-0.956265 0,-0.590542 0.32012,-0.718229 2.54639,-1.015733 2.29539,-0.306744 3.64716,-2.251865 3.64716,-5.248075 0,-1.062485 0.13753,-1.523105 0.49577,-1.660577 0.66983,-0.257039 1.04181,0.420892 1.04962,1.912908 0.0167,3.21125 1.58375,5.109678 4.21762,5.109678 0.76332,0 1.44003,0.188315 1.66925,0.464516 0.61127,0.736552 -0.11028,1.295588 -1.8934,1.466923 -1.26868,0.121908 -1.77727,0.355996 -2.6334,1.212149 -0.87521,0.875204 -1.09047,1.357307 -1.22893,2.752286 -0.0923,0.930172 -0.23126,2.004771 -0.30874,2.387997 -0.13546,0.669922 -0.7305,0.921157 -1.16133,0.490322 z m -73.26656,-3.072688 c -1.53677,-1.293101 -1.23685,-3.360365 0.62737,-4.324391 1.747,-0.903407 3.76622,0.193533 4.18187,2.271793 0.1684,0.841985 0.0506,1.123956 -0.80218,1.920595 -1.28591,1.20122 -2.68173,1.247201 -4.00706,0.132003 z m 191.7837,-8.004551 c -1.91969,-0.835498 -2.57586,-3.043355 -1.36283,-4.585499 1.71843,-2.184651 6.32439,-0.405799 6.32439,2.442528 0,2.170696 -2.45828,3.232462 -4.96156,2.142971 z M 122.78709,42.377891 c -2.37778,-1.300546 -1.52918,-4.922902 1.14722,-4.897074 1.13672,0.01096 1.82565,0.430937 2.36349,1.440761 0.58084,1.090567 0.42122,1.942523 -0.54495,2.908695 -0.94391,0.943916 -1.91379,1.122999 -2.96576,0.547618 z m 464.61113,-4.210148 c -0.20529,-6.279918 -0.84471,-7.267828 -4.9781,-7.691307 -3.61948,-0.370825 -3.67603,-1.203054 -0.0974,-1.432719 3.88682,-0.24944 4.6119,-1.153898 4.98673,-6.220399 0.18974,-2.564915 0.30253,-3.019877 0.72846,-2.938696 0.41103,0.07834 0.53611,0.666571 0.67825,3.189586 0.18504,3.284575 0.38283,3.892724 1.65219,5.080049 0.66925,0.625969 1.20069,0.771028 3.26181,0.890344 1.62661,0.09417 2.51476,0.279359 2.61699,0.545683 0.26948,0.702272 -0.51364,0.997414 -2.96309,1.116727 -1.9959,0.09722 -2.5087,0.236481 -3.17466,0.862119 -1.04104,0.977996 -1.40884,2.40433 -1.41095,5.47152 -0.003,3.31768 -0.3011,5.385158 -0.77831,5.385158 -0.27856,0 -0.42064,-1.159086 -0.52196,-4.258065 z m 71.92874,-0.259785 c -1.94617,-1.637609 -0.85369,-4.834409 1.65213,-4.834409 1.67718,0 2.80035,1.155868 2.80035,2.881899 0,2.447752 -2.54013,3.561652 -4.45248,1.95251 z m 299.02141,-2.191829 c -0.11356,-0.113546 -0.20647,-0.840502 -0.20647,-1.615451 0,-2.186019 -0.78106,-3.864764 -2.15832,-4.638821 -0.64769,-0.364021 -1.60014,-0.661856 -2.11659,-0.661856 -1.33833,0 -1.91863,-0.289227 -1.91863,-0.956265 0,-0.590543 0.32011,-0.71823 2.54638,-1.015734 2.29539,-0.306743 3.64716,-2.251864 3.64716,-5.248074 0,-1.062485 0.13753,-1.523105 0.49577,-1.660578 0.66983,-0.257039 1.04181,0.420891 1.04962,1.912909 0.0167,3.211249 1.58375,5.109677 4.21762,5.109677 0.76332,0 1.44003,0.188315 1.66925,0.464516 0.61127,0.736554 -0.11027,1.295588 -1.8934,1.466923 -1.26868,0.121907 -1.77727,0.355995 -2.6334,1.21215 -0.87521,0.875204 -1.09047,1.357306 -1.22892,2.752285 -0.0924,0.930172 -0.23127,2.004772 -0.30875,2.387997 -0.13546,0.669922 -0.7305,0.921158 -1.16132,0.490322 z m -80.93048,-3.341757 c -1.5351,-0.66777 -2.12253,-2.422812 -1.31557,-3.930624 0.48146,-0.899595 2.26771,-1.564542 3.55442,-1.323153 1.18625,0.22254 2.6142,1.668728 2.6142,2.647577 0,1.095265 -0.88438,2.362125 -1.89485,2.714383 -1.25392,0.437109 -1.746,0.419114 -2.9582,-0.108183 z M 24.584706,24.161012 c -0.854756,-0.345361 -1.978255,-1.788305 -1.978255,-2.540733 0,-1.073824 0.890904,-2.346398 1.885362,-2.693069 1.250362,-0.435878 2.384985,-0.161744 3.456573,0.835136 2.32866,2.166311 -0.319124,5.628804 -3.36368,4.398666 z M 183.47756,21.717598 c -1.83636,-0.834206 -2.42251,-2.363433 -1.55149,-4.047789 0.6118,-1.1831 2.09042,-1.691335 3.55241,-1.22105 1.38419,0.44526 1.80032,0.776907 2.37905,1.896036 0.62787,1.21418 0.0949,2.858179 -1.13247,3.49285 -1.14582,0.592527 -1.72611,0.571076 -3.2475,-0.120047 z m 550.12441,-4.042163 c -1.26977,-1.269755 -1.25125,-2.774373 0.0476,-3.867261 1.08442,-0.912483 1.80055,-0.995227 3.04477,-0.35181 1.73615,0.897796 1.9576,3.297361 0.41621,4.509825 -1.13757,0.894796 -2.43013,0.787681 -3.50855,-0.290754 z M 418.49276,14.374208 c -1.75619,-0.866395 -2.12613,-2.632614 -0.86524,-4.131093 1.09288,-1.2988239 2.59751,-1.3173361 3.86725,-0.04758 1.48499,1.485 1.11193,3.426398 -0.813,4.230683 -1.25119,0.522784 -1.01236,0.528458 -2.18901,-0.05201 z"
         id="path332" />
    </g>
  </g>
</svg>
